<svg xmlns="http://www.w3.org/2000/svg" xmlns:xlink="http://www.w3.org/1999/xlink" viewBox="0 0 120.08 120.07"><defs><linearGradient id="linear-gradient" x1="-932.75" x2="-973.06" y1="549.61" y2="581.95" gradientTransform="translate(987.58 -473.44)" gradientUnits="userSpaceOnUse"><stop offset="0" stop-color="#f7f8f8"/><stop offset=".44" stop-color="#eeefef"/><stop offset="1" stop-color="#dcdddd"/></linearGradient><style>.cls-3{fill:#fff}</style></defs><g id="레이어_2" data-name="레이어 2"><g id="레이어_1-2" data-name="레이어 1"><path fill="#e83e44" d="M120.08 60A60 60 0 1160 0a60 60 0 0160.08 60z"/><path fill="url(#linear-gradient)" d="M88.51 49.14z"/><path d="M29.11 45.82a9.27 9.27 0 00-6.18-1.14C26.86 40.49 29 35.93 29 31.33a10.9 10.9 0 00-.06-1.27c-.21-2.86-1.53-5-3.57-5.73S19.57 24 13.61 30l-3.57 4c-1 1.2-4.76 6.9-5.45 12.83a74.82 74.82 0 002.15 29.1C7 77 8 79.49 10.3 80.42s4.79-.21 6.85-1.27l.55-.28 2.13-1 2.06-.87 2.52-1.1a17.89 17.89 0 005.16-2.81A15 15 0 0034.21 66a23.59 23.59 0 00.88-4.8 22.53 22.53 0 00-.24-6.46c-1.14-5.25-3.74-7.74-5.74-8.92zM10 53.35l.11 1.32a.67.67 0 001.14.54c2.24-1.88 5.64-3.57 8.37-2.63 2.13.75 3.58 3 4.34 6.56 1.55 7.58-3.64 11.23-6.88 12.71l-.08.05-4.15 2a.65.65 0 01-.49 0c-.26-.14-.33-.3-.5-.75a87.63 87.63 0 01-2.75-31.54 5.44 5.44 0 011.05-2.45l3.49-3.72L14 35c1.9-1.84 3.67-2.76 4.64-2.36.79.34 1 1.61 1 2.61.16 5.43-2.88 11-9.23 16.95a1.37 1.37 0 00-.41 1.15zM76.23 14.18c-1.16-4-3.06-4.84-3.62-5a31.69 31.69 0 00-15.2-1A29.37 29.37 0 0039 19.28a27.55 27.55 0 00-5 21.43c1.37 7.74 5.27 14 11.34 18.1 7.12 4.8 16.58 6.26 26.7 4.13A32.72 32.72 0 0086.82 56a6 6 0 002-4.69 17 17 0 00-.74-4.43c-.23-.82-.58-1.07-1.16-1.07-.41 0-.85.48-.94.59-2.85 3.3-7.19 5.6-12.62 6.67-13.89 2.69-24.6-3.81-27.26-16.57a18.94 18.94 0 012.69-14.92c2.89-4.17 7.63-6.93 13.35-7.79a24.15 24.15 0 0112.75 1.56s1.71.5 1.34-1.17z" className="cls-3"/></g></g></svg>
