<svg xmlns="http://www.w3.org/2000/svg" viewBox="0 0 24.94 22.68"><defs><style>.cls-1{fill:#009590}</style></defs><g id="레이어_2" data-name="레이어 2"><g id="레이어_1-2" data-name="레이어 1"><path d="M16.32 13.44a3.65 3.65 0 00-.29-1 4.84 4.84 0 00-2-2.28 4.42 4.42 0 00-4.55 0A4 4 0 008 11.81a4.3 4.3 0 00-.29.7 5 5 0 00.31 3.84 2 2 0 00.92.8 1.35 1.35 0 001.19-.09 1.28 1.28 0 00.45-1.34 3.42 3.42 0 010-1.85 1.39 1.39 0 01.33-.53 1.06 1.06 0 01.31-.21 1.28 1.28 0 01.79-.13 1.45 1.45 0 011.05.86 3.37 3.37 0 01.29 1.37 20.37 20.37 0 01-.92 6.15c-.05.21-.11.41-.16.61s-.13.36 0 .51a.42.42 0 00.18.14.7.7 0 00.76-.27A11 11 0 0015.75 18a13 13 0 00.48-1.83 7.75 7.75 0 00.09-2.72M24.94 4a.52.52 0 00-.56-.5 2.56 2.56 0 00-.85.27A34.34 34.34 0 016.68 5.31C5.73 5.17 4.76 5 3.8 4.83c-.6-.1-1.19-.23-1.8-.28a2.15 2.15 0 00-1.57.3 1.66 1.66 0 00-.2 2 4.4 4.4 0 001.71 1.63 4.12 4.12 0 002.25.77c2.13-.14 4.26-.34 6.38-.62 3.61-.47 7.4-.91 10.79-2.31a13.62 13.62 0 003.16-1.77c.17-.13.42-.35.42-.6" className="cls-1"/><path fill="#ed1551" d="M9.76 2.13a2.08 2.08 0 104.16 0 1.17 1.17 0 00-.11-.49c-.18-.38-.38-.57-.36-1 0-.61-.76-.62-1.18-.62a3 3 0 00-1.36.27 2.09 2.09 0 00-1.15 1.8"/></g></g></svg>
