<svg xmlns="http://www.w3.org/2000/svg" viewBox="0 0 502.94 502.25"><g data-name="레이어 2"><g data-name="Layer 1"><path fill="#ffe400" d="M502.94 430.49a71.79 71.79 0 01-71.84 71.76H71.84A71.81 71.81 0 010 430.49V71.74A71.79 71.79 0 0171.84 0H431.1a71.78 71.78 0 0171.84 71.74z"/><path fill="#1e1719" d="M359.34 301.36a70.41 70.41 0 00-24.52-44.87c-2-1.76-4.17-3.4-6.57-5.35 2-1.5 3.65-2.65 5.2-3.94a74.2 74.2 0 0021.84-30.2 68.81 68.81 0 004-35 69.55 69.55 0 00-18.16-38.38 71.14 71.14 0 00-25.56-18.11 77.4 77.4 0 00-29.83-5.65H171.27a20.79 20.79 0 00-2.37 0 4.81 4.81 0 00-4.59 4.92v249.69c0 1.24-.07 2.49 0 3.73a4.42 4.42 0 003.8 4.14 14.5 14.5 0 002.38.09h118.58a67.15 67.15 0 0034-9.09 72.46 72.46 0 0032.18-37.28 68 68 0 004.09-34.7zm-91.11 8.9h-21.39v-118H268s-.09-.06 0-.06v.06h.24z"/></g></g></svg>