<svg xmlns="http://www.w3.org/2000/svg" viewBox="0 0 70.51 50.07"><g data-name="레이어 2"><g data-name="Layer 1"><path fill="#fabe00" d="M20.26 26.7a95.85 95.85 0 001.24 15.81.19.19 0 000 .09c.73 1.06 1.48 5.28 2.07 6.6a.6.6 0 00.14.13 5.33 5.33 0 002.75.73.12.12 0 00.12-.11 17.22 17.22 0 00-.05-4.11c-.32-4.92-.69-12.75-.63-17.5 3.85 2.15 18.3 12.5 25.83 14.64a.5.5 0 00.48-.1 2.61 2.61 0 011.1-.68 1.48 1.48 0 00.41-1.29c4.76-.18 11.38-2 14.86-6.37 2.39-3 2.35-7.18.86-8.59a5.81 5.81 0 01-.63-.39c-2.27-2.27-5.36-2.88-8.67-2.68A17 17 0 0052 25.8c-.18-3.21 1.11-7.3 0-9.94a.21.21 0 00-.23-.14 8.2 8.2 0 00-3.38 1.09.41.41 0 00-.16.34c0 .75-.24 4.66-.61 5-.07.08-.05.15-.07.31a57.71 57.71 0 000 12.06 2 2 0 001 .79 7.64 7.64 0 003.15-.66 2.3 2.3 0 01.5-.08c.13 0 .18-.16.17-.32a6.8 6.8 0 010-1.1c.74-3 3.78-6.87 7.62-7.46a5.42 5.42 0 015.18 1.69c.29.32.64 2.72-.75 5.32a10.57 10.57 0 01-5.75 4.56 21.83 21.83 0 01-8.75 1.21C47 36.73 42.09 32.66 37.8 31a14.21 14.21 0 01-2.43-1.76c-2.08-1.68-6.54-4.58-9.18-6.36v-.07a1.27 1.27 0 010-.56.38.38 0 01.2-.23c.93-.62 4.84-2.76 5.18-3.26a2 2 0 01.44-.3c5.88-3.56 16.2-8.39 20.71-13.06a.42.42 0 00.06-.27 1.88 1.88 0 01.09-.56 2.91 2.91 0 000-1.75.27.27 0 00-.17-.19c-2.41-.23-5.61 1.23-8.58 4a10.28 10.28 0 01-2.32 1.64c-3.37 1.92-11.36 6.88-15.17 9.33-.05 0-.1 0-.1-.05a128.92 128.92 0 012-15.8.47.47 0 00-.07-.35c-.31-.47-.49-1-.6-1.15h-.06a2.13 2.13 0 00-1.59-.13c-.48.11-1.07.49-1.83.67a.26.26 0 00-.2.16 64.16 64.16 0 00-3.82 18.29s0 .06 0 0A89.85 89.85 0 0011 14.11h-.14A6.89 6.89 0 018.62 13c-.84-.5-2.49-1.67-3.51-2.26a.49.49 0 00-.35-.08 6.4 6.4 0 00-3 2c-.15.23.16.74.12 1.06a.16.16 0 000 .09A30.58 30.58 0 008.06 18c3.1 1.67 6.26 3.26 7.57 4.09a.23.23 0 01.07.08 2.39 2.39 0 00.71.53 7.27 7.27 0 01.92.57c.09.08.05.17 0 .23C14 25.79 7.49 30 4.38 32.11a25.74 25.74 0 01-2.58 1.23A3.35 3.35 0 000 34.79c-.06.12 0 .17.1.2.5.14.62.5 1 .63a1.37 1.37 0 00.39.05c.65 0 1.79-.42 3.84-1.31 2.33-1 9.58-5.49 10.45-6h.06a2.21 2.21 0 001.2-.62 12.59 12.59 0 012.06-1.22l1.18-.66z"/></g></g></svg>