<?xml version="1.0" standalone="no"?>
<!DOCTYPE svg PUBLIC "-//W3C//DTD SVG 20010904//EN"
 "http://www.w3.org/TR/2001/REC-SVG-20010904/DTD/svg10.dtd">
<svg version="1.0" xmlns="http://www.w3.org/2000/svg"
 width="136.000000pt" height="136.000000pt" viewBox="0 0 136.000000 136.000000"
 preserveAspectRatio="xMidYMid meet">

<g transform="translate(0.000000,136.000000) scale(0.100000,-0.100000)"
fill="#000000" stroke="none">
<path d="M580 1349 c-229 -33 -435 -196 -528 -415 -32 -76 -55 -225 -47 -304
10 -101 24 -148 71 -248 136 -283 451 -432 764 -360 25 6 87 30 138 54 283
136 432 451 360 764 -6 25 -30 87 -54 138 -94 196 -271 329 -489 367 -95 16
-130 17 -215 4z m150 -349 c16 -50 4 -83 -37 -97 -78 -28 -137 75 -70 122 12
8 38 15 58 15 33 0 37 -3 49 -40z m375 -96 c0 -26 -136 -94 -236 -117 -97 -23
-356 -57 -434 -57 -74 0 -132 30 -157 80 -15 29 -16 37 -4 55 18 28 53 30 160
9 135 -27 373 -25 486 4 47 11 103 28 125 36 48 17 60 16 60 -10z m-364 -207
c18 -12 44 -38 57 -57 35 -51 28 -160 -15 -251 -62 -132 -120 -155 -90 -37 36
143 30 237 -16 246 -31 6 -47 -17 -47 -67 0 -52 -13 -71 -46 -71 -59 0 -86
118 -44 188 43 70 135 93 201 49z"/>
</g>
</svg>
