<svg xmlns="http://www.w3.org/2000/svg" xmlns:xlink="http://www.w3.org/1999/xlink" viewBox="0 0 52.85 52.29"><defs><clipPath id="clip-path" transform="translate(.18)"><path id="SVGID" fill="none" d="M26.15 51A24.91 24.91 0 101.24 26.14 24.9 24.9 0 0026.15 51z"/></clipPath><style>.cls-2{fill:#fff}.cls-3{fill:#007bc7}</style></defs><g id="레이어_2" data-name="레이어 2"><g id="Layer_1" data-name="Layer 1"><path d="M52.29 26.14A26.15 26.15 0 1126.15 0a26.16 26.16 0 0126.14 26.14z" className="cls-2" transform="translate(.18)"/><path id="SVGID-2" d="M26.15 51A24.91 24.91 0 101.24 26.14 24.9 24.9 0 0026.15 51z" className="cls-3" data-name="SVGID" transform="translate(.18)"/><g clip-path="url(#clip-path)"><path d="M26.23 38.17c10.94 0 20.33 3 24.34 7.37a25.19 25.19 0 002.09-10.08c0-14.29-11.84-25.86-26.43-25.86S-.18 21.18-.18 35.46a25.11 25.11 0 002.09 10.08c4-4.32 13.38-7.37 24.32-7.37z" className="cls-3" transform="translate(.18)"/><path fill="#007dc8" d="M26.23 38.19c10.91 0 20.27 3 24.28 7.32a24.83 24.83 0 002.08-10c0-14.17-11.81-25.69-26.36-25.69S-.12 21.34-.12 35.51a24.93 24.93 0 002.12 10c4-4.29 13.32-7.32 24.23-7.32z" transform="translate(.18)"/><path fill="#007ec9" d="M26.23 38.22c10.88 0 20.22 3 24.21 7.26a24.45 24.45 0 002.08-9.92C52.52 21.5 40.74 10 26.23 10S-.06 21.51-.06 35.56A24.55 24.55 0 002 45.48c4-4.26 13.34-7.26 24.23-7.26z" transform="translate(.18)"/><path fill="#0080ca" d="M26.23 38.25c10.85 0 20.16 3 24.15 7.19a24.15 24.15 0 002.07-9.83c0-13.95-11.75-25.35-26.22-25.35S0 21.67 0 35.61a24.28 24.28 0 002.07 9.83c3.99-4.21 13.3-7.19 24.16-7.19z" transform="translate(.18)"/><path fill="#0082cb" d="M26.22 38.28c10.83 0 20.12 2.95 24.09 7.13a23.81 23.81 0 002.07-9.75c0-13.83-11.72-25.18-26.16-25.18S.07 21.83.07 35.66a23.94 23.94 0 002.07 9.75c3.97-4.18 13.25-7.13 24.08-7.13z" transform="translate(.18)"/><path fill="#0083cc" d="M26.22 38.3c10.8 0 20.06 2.93 24 7.08a23.45 23.45 0 002.07-9.68c0-13.71-11.69-25-26.09-25S.14 22 .14 35.7a23.57 23.57 0 002.06 9.68c3.96-4.15 13.22-7.08 24.02-7.08z" transform="translate(.18)"/><path fill="#0085ce" d="M26.22 38.33c10.76 0 20 2.9 24 7a23.26 23.26 0 002.06-9.6c0-13.59-11.66-24.82-26-24.82S.2 22.16.2 35.75a23.23 23.23 0 002.06 9.6c3.95-4.12 13.18-7.02 23.96-7.02z" transform="translate(.18)"/><path fill="#0087cf" d="M26.21 38.36c10.74 0 20 2.88 23.9 7a22.93 22.93 0 002.06-9.52c0-13.48-11.63-24.65-26-24.65S.27 22.32.27 35.8a23 23 0 002.05 9.52c3.93-4.08 13.15-6.96 23.89-6.96z" transform="translate(.18)"/><path fill="#0089d0" d="M26.21 38.39c10.71 0 19.91 2.85 23.84 6.9a22.71 22.71 0 002.05-9.44c0-13.37-11.6-24.48-25.89-24.48S.33 22.49.33 35.85a22.67 22.67 0 002.05 9.44c3.92-4.05 13.11-6.9 23.83-6.9z" transform="translate(.18)"/><path fill="#008bd1" d="M26.21 38.42c10.68 0 19.85 2.82 23.77 6.83A22.3 22.3 0 0052 35.9c0-13.25-11.57-24.31-25.82-24.31S.39 22.65.39 35.9a22.26 22.26 0 002.05 9.35c3.91-4.01 13.08-6.83 23.77-6.83z" transform="translate(.18)"/><path fill="#008cd2" d="M26.2 38.44c10.66 0 19.8 2.81 23.72 6.78A22.11 22.11 0 0052 36c0-13.19-11.58-24.19-25.8-24.19S.46 22.82.46 36a21.89 21.89 0 002 9.27c3.94-4.02 13.08-6.83 23.74-6.83z" transform="translate(.18)"/><path fill="#008ed3" d="M26.2 38.47c10.62 0 19.75 2.78 23.65 6.72a21.78 21.78 0 002-9.19c0-13-11.51-24-25.69-24S.52 23 .52 36a21.86 21.86 0 002 9.19c3.93-3.94 13.05-6.72 23.68-6.72z" transform="translate(.18)"/><path fill="#0090d4" d="M26.2 38.5c10.59 0 19.69 2.75 23.58 6.66a21.42 21.42 0 002-9.11c0-12.91-11.48-23.8-25.62-23.8S.59 23.14.59 36.05a21.52 21.52 0 002 9.11c3.91-3.91 13-6.66 23.61-6.66z" transform="translate(.18)"/><path fill="#0092d5" d="M26.19 38.53c10.57 0 19.65 2.72 23.53 6.6a21.23 21.23 0 002-9c0-12.8-11.44-23.63-25.55-23.63S.65 23.31.65 36.1a21.17 21.17 0 002 9c3.9-3.85 12.97-6.57 23.54-6.57z" transform="translate(.18)"/><path fill="#0094d6" d="M26.19 38.55c10.54 0 19.59 2.71 23.46 6.54a20.83 20.83 0 002-8.94c0-12.68-11.41-23.46-25.48-23.46S.72 23.47.72 36.15a20.76 20.76 0 002 8.94c3.88-3.83 12.92-6.54 23.47-6.54z" transform="translate(.18)"/><path fill="#0096d7" d="M26.19 38.58c10.51 0 19.54 2.68 23.4 6.48a20.47 20.47 0 002-8.86c0-12.57-11.38-23.28-25.41-23.28S.78 23.63.78 36.2a20.58 20.58 0 002 8.86c3.86-3.8 12.89-6.48 23.41-6.48z" transform="translate(.18)"/><path fill="#0098d8" d="M26.18 38.61c10.48 0 19.49 2.65 23.34 6.42a20.16 20.16 0 002-8.78c0-12.46-11.35-23.11-25.35-23.11S.85 23.8.85 36.25a20.22 20.22 0 002 8.78c3.84-3.77 12.84-6.42 23.33-6.42z" transform="translate(.18)"/><path fill="#009ad9" d="M26.18 38.64c10.45 0 19.44 2.63 23.28 6.36a19.94 19.94 0 002-8.7c0-12.34-11.32-22.94-25.28-22.94S.91 24 .91 36.3a19.91 19.91 0 002 8.7c3.83-3.73 12.81-6.36 23.27-6.36z" transform="translate(.18)"/><path fill="#009cda" d="M26.18 38.66c10.42 0 19.38 2.61 23.21 6.31a19.6 19.6 0 002-8.62c0-12.23-11.29-22.77-25.21-22.77S1 24.12 1 36.35A19.6 19.6 0 003 45c3.79-3.73 12.74-6.34 23.18-6.34z" transform="translate(.18)"/><path fill="#009edb" d="M26.17 38.69c10.4 0 19.34 2.58 23.16 6.24a19.34 19.34 0 002-8.53c0-12.11-11.27-22.6-25.15-22.6S1 24.29 1 36.4a19.31 19.31 0 002 8.53c3.84-3.66 12.77-6.24 23.17-6.24z" transform="translate(.18)"/><path fill="#00a0dc" d="M26.17 38.72c10.37 0 19.28 2.55 23.09 6.18a19 19 0 002-8.45C51.25 24.45 40 14 26.17 14S1.1 24.45 1.1 36.45a19 19 0 002 8.45c3.79-3.63 12.69-6.18 23.07-6.18z" transform="translate(.18)"/><path fill="#00a2dd" d="M26.17 38.75c10.33 0 19.23 2.53 23 6.12a18.69 18.69 0 002-8.37c0-11.89-11.21-22.26-25-22.26s-25 10.38-25 22.26a18.81 18.81 0 002 8.37c3.77-3.59 12.65-6.12 23-6.12z" transform="translate(.18)"/><path fill="#00a4de" d="M26.16 38.77c10.31 0 19.18 2.51 23 6.07a18.52 18.52 0 002-8.3c0-11.76-11.18-22.08-24.95-22.08S1.23 24.78 1.23 36.54a18.48 18.48 0 002 8.3c3.77-3.56 12.61-6.07 22.93-6.07z" transform="translate(.18)"/><path fill="#00a6df" d="M26.16 38.8c10.28 0 19.13 2.48 22.9 6a18.22 18.22 0 002-8.22c0-11.65-11.15-21.91-24.88-21.91S1.3 24.94 1.3 36.59a18.3 18.3 0 002 8.22C7 41.28 15.87 38.8 26.16 38.8z" transform="translate(.18)"/><path fill="#00a9e0" d="M26.16 38.83c10.25 0 19.07 2.46 22.84 6a18 18 0 002-8.14c0-11.53-11.12-21.73-24.81-21.73S1.36 25.11 1.36 36.64a18 18 0 002 8.14c3.72-3.49 12.53-5.95 22.8-5.95z" transform="translate(.18)"/><path fill="#00abe1" d="M26.15 38.86c10.23 0 19 2.43 22.78 5.88a17.63 17.63 0 002-8.05c0-11.42-11.08-21.56-24.74-21.56S1.42 25.27 1.42 36.69a17.6 17.6 0 002 8.05c3.71-3.45 12.5-5.88 22.73-5.88z" transform="translate(.18)"/><path fill="#00ade2" d="M26.15 38.88c10.2 0 19 2.41 22.72 5.83a17.45 17.45 0 002-8c0-11.31-11-21.39-24.67-21.39S1.49 25.43 1.49 36.74a17.29 17.29 0 002 8c3.69-3.45 12.45-5.86 22.66-5.86z" transform="translate(.18)"/><path fill="#01afe3" d="M26.15 38.91c10.16 0 18.92 2.38 22.65 5.77a17.15 17.15 0 002-7.89c0-11.19-11-21.22-24.6-21.22s-24.6 10-24.6 21.22a17.06 17.06 0 002 7.89c3.63-3.39 12.4-5.77 22.55-5.77z" transform="translate(.18)"/><path fill="#14b1e4" d="M26.14 38.94c10.14 0 18.87 2.36 22.59 5.71a16.83 16.83 0 002-7.81c0-11.08-11-21.05-24.54-21.05S1.62 25.76 1.62 36.84a16.76 16.76 0 001.94 7.81C7.28 41.3 16 38.94 26.14 38.94z" transform="translate(.18)"/><path fill="#20b4e5" d="M26.14 39c10.11 0 18.86 2.3 22.53 5.62a16.53 16.53 0 001.94-7.73c0-11-11-20.88-24.47-20.88S1.68 25.92 1.68 36.89a16.47 16.47 0 001.94 7.73C7.33 41.3 16 39 26.14 39z" transform="translate(.18)"/><path fill="#28b6e6" d="M26.14 39c10.08 0 18.76 2.3 22.46 5.58a16.14 16.14 0 001.94-7.64c0-10.85-10.93-20.71-24.4-20.71S1.75 26.09 1.75 36.94a16.08 16.08 0 001.93 7.64C7.38 41.3 16 39 26.14 39z" transform="translate(.18)"/><path fill="#30b8e7" d="M26.13 39c10.06 0 18.72 2.29 22.41 5.53A15.94 15.94 0 0050.47 37c0-10.74-10.9-20.54-24.34-20.54S1.81 26.25 1.81 37a16 16 0 001.92 7.56C7.42 41.31 16.07 39 26.13 39z" transform="translate(.18)"/><path fill="#3fbae8" d="M26.13 39.09c10 0 18.69 2.26 22.38 5.49a15.89 15.89 0 001.93-7.51c0-10.67-10.89-20.41-24.31-20.41S1.84 26.4 1.84 37.07a15.85 15.85 0 001.92 7.51c3.69-3.23 12.32-5.49 22.37-5.49z" transform="translate(.18)"/><path fill="#4cbde9" d="M26.13 39.15c10 0 18.67 2.25 22.35 5.46a15.75 15.75 0 001.92-7.47c0-10.6-10.87-20.28-24.27-20.28S1.88 26.55 1.88 37.14a15.71 15.71 0 001.91 7.47c3.68-3.21 12.3-5.46 22.34-5.46z" transform="translate(.18)"/><path fill="#56bfea" d="M26.13 39.21c10 0 18.64 2.24 22.32 5.42a15.52 15.52 0 001.92-7.41c0-10.53-10.85-20.16-24.24-20.16S1.91 26.69 1.91 37.22a15.45 15.45 0 001.91 7.41c3.68-3.18 12.29-5.42 22.31-5.42z" transform="translate(.18)"/><path fill="#60c1ea" d="M26.13 39.28c10 0 18.62 2.22 22.29 5.38a15.32 15.32 0 001.92-7.36c0-10.46-10.84-20-24.21-20s-24.19 9.54-24.19 20a15.28 15.28 0 001.91 7.36c3.67-3.16 12.27-5.38 22.28-5.38z" transform="translate(.18)"/><path fill="#69c4eb" d="M26.14 39.34c10 0 18.58 2.21 22.24 5.35a15.17 15.17 0 001.92-7.32c0-10.39-10.82-19.9-24.16-19.9S2 27 2 37.37a15.23 15.23 0 001.9 7.32c3.65-3.14 12.24-5.35 22.24-5.35z" transform="translate(.18)"/><path fill="#71c6ec" d="M26.14 39.4c10 0 18.55 2.2 22.21 5.32a15 15 0 001.92-7.27c0-10.32-10.81-19.78-24.13-19.78S2 27.13 2 37.45a15.07 15.07 0 001.9 7.27c3.67-3.12 12.25-5.32 22.24-5.32z" transform="translate(.18)"/><path fill="#79c9ed" d="M26.14 39.47c10 0 18.53 2.17 22.18 5.27a14.78 14.78 0 001.92-7.21c0-10.25-10.8-19.66-24.1-19.66S2 27.28 2 37.53a14.84 14.84 0 001.9 7.21c3.7-3.1 12.26-5.27 22.24-5.27z" transform="translate(.18)"/><path fill="#81cbee" d="M26.14 39.53c9.94 0 18.5 2.16 22.15 5.24a14.59 14.59 0 001.91-7.17c0-10.18-10.78-19.53-24.06-19.53S2.07 27.43 2.07 37.6A14.66 14.66 0 004 44.77c3.62-3.08 12.18-5.24 22.14-5.24z" transform="translate(.18)"/><path fill="#88ceef" d="M26.14 39.59c9.93 0 18.48 2.15 22.12 5.21a14.54 14.54 0 001.91-7.12c0-10.11-10.77-19.4-24-19.4s-24 9.29-24 19.4A14.49 14.49 0 004 44.8c3.65-3.06 12.19-5.21 22.14-5.21z" transform="translate(.18)"/><path fill="#8fd0f0" d="M26.14 39.65c9.92 0 18.45 2.14 22.09 5.17a14.32 14.32 0 001.91-7.06c0-10-10.76-19.28-24-19.28s-24 9.24-24 19.28A14.27 14.27 0 004 44.82c3.67-3.03 12.21-5.17 22.14-5.17z" transform="translate(.18)"/><path fill="#96d3f1" d="M26.14 39.72c9.9 0 18.43 2.12 22.06 5.13a14.16 14.16 0 001.9-7c0-10-10.73-19.15-24-19.15s-24 9.19-24 19.15a14.12 14.12 0 001.89 7c3.71-3.01 12.23-5.13 22.15-5.13z" transform="translate(.18)"/><path fill="#9cd5f1" d="M26.14 39.78c9.89 0 18.4 2.11 22 5.1a14 14 0 001.9-7c0-9.9-10.72-19-23.93-19S2.21 28 2.21 37.91a14.06 14.06 0 001.88 7c3.63-3.02 12.14-5.13 22.05-5.13z" transform="translate(.18)"/><path fill="#a3d7f2" d="M26.14 39.84c9.88 0 18.38 2.09 22 5.07A13.92 13.92 0 0050 38c0-9.83-10.71-18.9-23.9-18.9S2.24 28.16 2.24 38a13.87 13.87 0 001.88 6.92c3.63-2.99 12.13-5.08 22.02-5.08z" transform="translate(.18)"/><path fill="#a9daf3" d="M26.14 39.91c9.87 0 18.35 2.07 22 5A13.7 13.7 0 0050 38.06c0-9.76-10.69-18.77-23.86-18.77s-23.87 9-23.87 18.77a13.66 13.66 0 001.88 6.87c3.62-2.93 12.11-5.02 21.99-5.02z" transform="translate(.18)"/><path fill="#afdcf4" d="M26.14 40c9.86 0 18.33 2 21.94 5A13.57 13.57 0 0050 38.14c0-9.69-10.68-18.65-23.83-18.65s-23.83 9-23.83 18.65A13.5 13.5 0 004.18 45c3.62-3 12.1-5 21.96-5z" transform="translate(.18)"/><path fill="#b4dff5" d="M26.14 40c9.84 0 18.3 2 21.91 5a13.39 13.39 0 001.89-6.77c0-9.62-10.67-18.52-23.8-18.52S2.34 28.6 2.34 38.22A13.35 13.35 0 004.21 45c3.61-2.92 12.08-5 21.93-5z" transform="translate(.18)"/><path fill="#bae1f6" d="M26.14 40.1C36 40.1 44.42 42.13 48 45a13.28 13.28 0 001.88-6.72c0-9.55-10.65-18.39-23.76-18.39S2.37 28.75 2.37 38.29A13.14 13.14 0 004.24 45c3.61-2.87 12.06-4.9 21.9-4.9z" transform="translate(.18)"/><path fill="#bfe3f6" d="M26.14 40.16c9.81 0 18.25 2 21.85 4.88a13.12 13.12 0 001.88-6.67c0-9.48-10.64-18.27-23.73-18.27S2.41 28.9 2.41 38.37A13 13 0 004.27 45c3.6-2.82 12.05-4.84 21.87-4.84z" transform="translate(.18)"/><path fill="#c5e6f7" d="M26.14 40.22c9.8 0 18.22 2 21.82 4.85a13 13 0 001.88-6.62c0-9.41-10.62-18.15-23.7-18.15S2.44 29 2.44 38.45a12.9 12.9 0 001.86 6.62c3.6-2.85 12.03-4.85 21.84-4.85z" transform="translate(.18)"/><path fill="#cae8f8" d="M26.14 40.29c9.79 0 18.2 2 21.79 4.81a12.79 12.79 0 001.87-6.58c0-9.34-10.6-18-23.66-18s-23.67 8.68-23.67 18a12.78 12.78 0 001.86 6.58c3.59-2.83 12.02-4.81 21.81-4.81z" transform="translate(.18)"/><path fill="#cfeaf9" d="M26.14 40.35c9.78 0 18.17 2 21.76 4.77a12.68 12.68 0 001.87-6.52c0-9.27-10.59-17.89-23.63-17.89S2.5 29.34 2.5 38.6a12.57 12.57 0 001.86 6.52c3.64-2.8 12-4.77 21.78-4.77z" transform="translate(.18)"/><path fill="#d5ecfa" d="M26.14 40.41c9.76 0 18.15 2 21.73 4.74a12.53 12.53 0 001.87-6.47c0-9.2-10.58-17.77-23.6-17.77s-23.6 8.57-23.6 17.77a12.42 12.42 0 001.85 6.47c3.61-2.78 11.98-4.74 21.75-4.74z" transform="translate(.18)"/><path fill="#daeffa" d="M26.14 40.48c9.75 0 18.12 1.94 21.7 4.7a12.38 12.38 0 001.86-6.43c0-9.13-10.56-17.63-23.56-17.63S2.57 29.63 2.57 38.75a12.25 12.25 0 001.85 6.43c3.58-2.76 11.97-4.7 21.72-4.7z" transform="translate(.18)"/><path fill="#dff1fb" d="M26.14 40.54c9.74 0 18.1 1.93 21.67 4.67a12.21 12.21 0 001.86-6.38c0-9.06-10.55-17.51-23.53-17.51S2.6 29.78 2.6 38.83a12.2 12.2 0 001.85 6.38C8 42.47 16.4 40.54 26.14 40.54z" transform="translate(.18)"/><path fill="#e4f3fc" d="M26.14 40.6c9.72 0 18.07 1.91 21.64 4.63a12.09 12.09 0 001.86-6.32c0-9-10.54-17.39-23.5-17.39s-23.5 8.4-23.5 17.39a12 12 0 001.84 6.32c3.57-2.72 11.94-4.63 21.66-4.63z" transform="translate(.18)"/><path fill="#e9f5fc" d="M26.14 40.67c9.71 0 18 1.89 21.61 4.59A12 12 0 0049.61 39c0-8.92-10.53-17.26-23.47-17.26S2.67 30.07 2.67 39a11.84 11.84 0 001.84 6.28c3.57-2.72 11.92-4.61 21.63-4.61z" transform="translate(.18)"/><path fill="#edf7fd" d="M26.14 40.73c9.7 0 18 1.88 21.57 4.56a11.72 11.72 0 001.86-6.23c0-8.85-10.5-17.13-23.43-17.13S2.7 30.22 2.7 39.06a11.7 11.7 0 001.84 6.23c3.56-2.68 11.91-4.56 21.6-4.56z" transform="translate(.18)"/><path fill="#f2f9fd" d="M26.14 40.79c9.69 0 18 1.87 21.54 4.52a11.55 11.55 0 001.86-6.17c0-8.79-10.49-17-23.4-17s-23.4 8.23-23.4 17a11.46 11.46 0 001.83 6.17c3.56-2.65 11.89-4.52 21.57-4.52z" transform="translate(.18)"/><path fill="#f7fbfe" d="M26.14 40.86c9.67 0 18 1.85 21.51 4.48a11.47 11.47 0 001.86-6.13c0-8.71-10.48-16.88-23.37-16.88S2.77 30.51 2.77 39.21a11.33 11.33 0 001.83 6.13c3.55-2.63 11.87-4.48 21.54-4.48z" transform="translate(.18)"/><path fill="#fbfdff" d="M26.14 40.92c9.66 0 18 1.84 21.48 4.45a11.32 11.32 0 001.85-6.08c0-8.64-10.46-16.76-23.33-16.76S2.8 30.66 2.8 39.29a11.28 11.28 0 001.83 6.08c3.55-2.61 11.86-4.45 21.51-4.45z" transform="translate(.18)"/><path d="M26.14 41c9.65 0 17.92 1.82 21.45 4.42a11.18 11.18 0 001.85-6c0-8.58-10.45-16.63-23.3-16.63S2.83 30.8 2.83 39.37a11.14 11.14 0 001.83 6C8.2 42.8 16.5 41 26.14 41z" className="cls-2" transform="translate(.18)"/></g><path d="M26.13 32.42a65.7 65.7 0 00-22.74 3.85 24.9 24.9 0 0045.49 0 65.63 65.63 0 00-22.75-3.85z" className="cls-3" transform="translate(.18)"/></g></g></svg>
