<svg xmlns="http://www.w3.org/2000/svg" xmlns:xlink="http://www.w3.org/1999/xlink" viewBox="0 0 65.16 65.16"><defs><radialGradient id="a" cx="505.5" cy="-409.47" r="62.9" gradientTransform="matrix(.49 0 0 .49 -206.01 223.28)" gradientUnits="userSpaceOnUse"><stop offset="0" stop-color="#fff"/><stop offset="1" stop-color="#d3a243"/></radialGradient><radialGradient id="b" cx="505.77" cy="-409.63" r="138.82" gradientTransform="matrix(.49 0 0 .49 -210.63 225.67)" gradientUnits="userSpaceOnUse"><stop offset="0" stop-color="#00b9ef"/><stop offset=".22" stop-color="#0093d4"/><stop offset=".3" stop-color="#007bc3"/><stop offset=".38" stop-color="#0069b6"/><stop offset=".47" stop-color="#005eae"/><stop offset=".57" stop-color="#005bac"/></radialGradient></defs><g data-name="레이어 2"><g data-name="레이어 1"><path fill="url(#a)" d="M31.13.47a32.14 32.14 0 1033.56 30.66A32.13 32.13 0 0031.13.47z"/><path fill="url(#b)" d="M31.11 0a32.58 32.58 0 1034 31.08A32.59 32.59 0 0031.11 0zm3.81 31.62c5.79 5.33 9 8.21 9 8.21 10.2 8.5 6.72 16.27 2.82 19a19.54 19.54 0 01-10.6 3.26 1 1 0 01-1.14-.85c0-.74 1.05-.93 1.05-.93 9.64-1.89 6.82-8.21 3.41-11.44C38 47.52 24.59 36 24.59 36 11.8 25 12.83 16.38 12.83 16.38c.61-10.57 9.88-13.2 16.89-12.59.82.07 1.27.57 1.12 1.25s-1.23.8-1.23.8c-2.23.13-4.23.36-5.75 1.38-5.64 3.8-4 10.26 3.56 17.45.94.91 1.95 1.86 3 2.83-.02-.05 1.49 1.29 4.5 4.15zM30.55 59c.06 1-2.45 1.48-5.32 1.2a20.47 20.47 0 01-11.64-4.73A22.56 22.56 0 017 44.81c-1.06-3.68-1.5-8 .25-7.65.54.11 1.47 2.48 2.48 4.2a11.09 11.09 0 002.69 3.36c.36.27 1.59-2.46 3.38-4 1-.86 2.17-1.15 2.35 1.4.23 3.14-.33 6.87.58 6.87s2.79-.64 7-1c1.59-.14 2.5.16 1 2.31a16.06 16.06 0 01-4.18 4.3c3.6 3.4 7.92 2.96 8 4.4zm2.84-32.84a10.92 10.92 0 01-.12-4.09c.46-3.55 1.41-5.22 2.5-8 1.47-3.7-2.1-5.87-1.51-7.23.81-1.85 3.36.5 6.21.67 2.45.14 3.93 0 5.84.27 2.53.34 5.57 1.2 6.91 2.78s-.65 3.22-2.92 2.11c-1.66-.81-3.76-.31-2.53 1.42a5.61 5.61 0 003.69 2.09c4.15 1.09 4.23 5.06 1.43 7.12-3.2 2.34-6.43 1.38-7.73-3.21-.65-2.29-2.27-3.46-3.92-2.81s-.67 3.66.58 6.46c2.51 6.39-3.72 6.18-4.45 6.1a5.19 5.19 0 01-3.98-3.68z"/></g></g></svg>