<?xml version="1.0" standalone="no"?>
<!DOCTYPE svg PUBLIC "-//W3C//DTD SVG 20010904//EN"
 "http://www.w3.org/TR/2001/REC-SVG-20010904/DTD/svg10.dtd">
<svg version="1.0" xmlns="http://www.w3.org/2000/svg"
 width="200.000000pt" height="200.000000pt" viewBox="0 0 200.000000 200.000000"
 preserveAspectRatio="xMidYMid meet">

<g transform="translate(0.000000,200.000000) scale(0.100000,-0.100000)"
fill="#000000" stroke="none">
<path d="M1138 1670 c-8 -17 -239 -1080 -269 -1231 -10 -55 -16 -105 -13 -111
10 -15 85 -4 184 27 308 97 587 324 670 543 33 87 32 193 -3 265 -70 143 -234
219 -470 219 -90 0 -117 3 -114 12 20 51 34 320 15 276z"/>
<path d="M722 1525 c-200 -107 -361 -271 -422 -430 -32 -83 -32 -190 -1 -262
43 -97 153 -175 293 -208 69 -16 273 -21 283 -6 8 13 55 268 55 300 0 14 -20
67 -46 117 -42 83 -47 98 -51 180 -3 56 1 121 10 173 8 46 13 100 10 120 -2
20 -5 42 -5 49 -2 22 -42 12 -126 -33z"/>
</g>
</svg>
